<svg width="267" height="25" viewBox="0 0 267 25" fill="none" xmlns="http://www.w3.org/2000/svg">
<path d="M10 15.5331L15.19 12.5331L10 9.53308V15.5331ZM21.56 7.70308C21.69 8.17308 21.78 8.80308 21.84 9.60308C21.91 10.4031 21.94 11.0931 21.94 11.6931L22 12.5331C22 14.7231 21.84 16.3331 21.56 17.3631C21.31 18.2631 20.73 18.8431 19.83 19.0931C19.36 19.2231 18.5 19.3131 17.18 19.3731C15.88 19.4431 14.69 19.4731 13.59 19.4731L12 19.5331C7.81 19.5331 5.2 19.3731 4.17 19.0931C3.27 18.8431 2.69 18.2631 2.44 17.3631C2.31 16.8931 2.22 16.2631 2.16 15.4631C2.09 14.6631 2.06 13.9731 2.06 13.3731L2 12.5331C2 10.3431 2.16 8.73308 2.44 7.70308C2.69 6.80308 3.27 6.22308 4.17 5.97308C4.64 5.84308 5.5 5.75308 6.82 5.69308C8.12 5.62308 9.31 5.59308 10.41 5.59308L12 5.53308C16.19 5.53308 18.8 5.69308 19.83 5.97308C20.73 6.22308 21.31 6.80308 21.56 7.70308Z" fill="black"/>
<path d="M51.294 11.4611L56.357 5.53308H55.157L50.762 10.6801L47.25 5.53308H43.2L48.51 13.3171L43.2 19.5331H44.4L49.042 14.0971L52.751 19.5331H56.801L51.294 11.4611ZM49.651 13.3851L49.113 12.6101L44.832 6.44308H46.675L50.129 11.4201L50.667 12.1951L55.158 18.6651H53.315L49.651 13.3851Z" fill="black"/>
<path d="M85.1429 15.9617L91.0743 12.5331L85.1429 9.10451V15.9617ZM98.3543 7.01308C98.5029 7.55022 98.6057 8.27022 98.6743 9.18451C98.7543 10.0988 98.7886 10.8874 98.7886 11.5731L98.8571 12.5331C98.8571 15.0359 98.6743 16.8759 98.3543 18.0531C98.0686 19.0817 97.4057 19.7445 96.3771 20.0302C95.84 20.1788 94.8571 20.2817 93.3486 20.3502C91.8629 20.4302 90.5029 20.4645 89.2457 20.4645L87.4286 20.5331C82.64 20.5331 79.6571 20.3502 78.48 20.0302C77.4514 19.7445 76.7886 19.0817 76.5029 18.0531C76.3543 17.5159 76.2514 16.7959 76.1829 15.8817C76.1029 14.9674 76.0686 14.1788 76.0686 13.4931L76 12.5331C76 10.0302 76.1829 8.19022 76.5029 7.01308C76.7886 5.98451 77.4514 5.32165 78.48 5.03594C79.0171 4.88737 80 4.78451 81.5086 4.71594C82.9943 4.63594 84.3543 4.60165 85.6114 4.60165L87.4286 4.53308C92.2171 4.53308 95.2 4.71594 96.3771 5.03594C97.4057 5.32165 98.0686 5.98451 98.3543 7.01308Z" fill="#FF2D2D"/>
<g clip-path="url(#clip0_15_1843)">
<path d="M129.107 4.53308H120.607C118.536 4.53308 116.857 6.21201 116.857 8.28308V16.7831C116.857 18.8541 118.536 20.5331 120.607 20.5331H129.107C131.178 20.5331 132.857 18.8541 132.857 16.7831V8.28308C132.857 6.21201 131.178 4.53308 129.107 4.53308Z" fill="url(#paint0_radial_15_1843)"/>
<path d="M129.107 4.53308H120.607C118.536 4.53308 116.857 6.21201 116.857 8.28308V16.7831C116.857 18.8541 118.536 20.5331 120.607 20.5331H129.107C131.178 20.5331 132.857 18.8541 132.857 16.7831V8.28308C132.857 6.21201 131.178 4.53308 129.107 4.53308Z" fill="url(#paint1_radial_15_1843)"/>
<path d="M124.858 6.28308C123.16 6.28308 122.947 6.29052 122.281 6.32083C121.615 6.35133 121.161 6.45664 120.764 6.61121C120.353 6.77083 120.004 6.98439 119.657 7.33189C119.309 7.67933 119.095 8.02802 118.935 8.43896C118.78 8.83646 118.675 9.29083 118.645 9.95589C118.615 10.6226 118.607 10.8357 118.607 12.5331C118.607 14.2306 118.615 14.443 118.645 15.1096C118.676 15.775 118.781 16.2291 118.935 16.6265C119.095 17.0376 119.309 17.3863 119.656 17.7337C120.003 18.0814 120.352 18.2955 120.763 18.4551C121.161 18.6096 121.615 18.715 122.28 18.7455C122.947 18.7758 123.16 18.7832 124.857 18.7832C126.555 18.7832 126.767 18.7758 127.434 18.7455C128.099 18.715 128.554 18.6096 128.951 18.4551C129.362 18.2955 129.71 18.0814 130.058 17.7337C130.405 17.3863 130.619 17.0376 130.779 16.6267C130.933 16.2291 131.038 15.7748 131.069 15.1097C131.099 14.4431 131.107 14.2306 131.107 12.5331C131.107 10.8357 131.099 10.6227 131.069 9.95602C131.038 9.29064 130.933 8.83652 130.779 8.43914C130.619 8.02802 130.405 7.67933 130.058 7.33189C129.71 6.98427 129.362 6.77071 128.951 6.61127C128.552 6.45664 128.098 6.35127 127.433 6.32083C126.766 6.29052 126.554 6.28308 124.856 6.28308H124.858ZM124.297 7.40939C124.463 7.40914 124.649 7.40939 124.858 7.40939C126.527 7.40939 126.724 7.41539 127.383 7.44533C127.993 7.47321 128.323 7.57502 128.544 7.66058C128.835 7.77383 129.043 7.90927 129.262 8.12808C129.481 8.34683 129.616 8.55514 129.73 8.84683C129.815 9.06683 129.917 9.39758 129.945 10.007C129.975 10.6658 129.981 10.8637 129.981 12.5317C129.981 14.1997 129.975 14.3976 129.945 15.0565C129.917 15.6658 129.815 15.9966 129.73 16.2166C129.616 16.5083 129.481 16.716 129.262 16.9346C129.043 17.1534 128.836 17.2888 128.544 17.4021C128.324 17.488 127.993 17.5896 127.383 17.6175C126.724 17.6474 126.527 17.6539 124.858 17.6539C123.189 17.6539 122.991 17.6474 122.332 17.6175C121.723 17.5893 121.392 17.4875 121.172 17.402C120.88 17.2886 120.672 17.1533 120.453 16.9345C120.234 16.7158 120.099 16.508 119.985 16.2161C119.9 15.9961 119.798 15.6653 119.77 15.056C119.74 14.3971 119.734 14.1992 119.734 12.5301C119.734 10.8611 119.74 10.6643 119.77 10.0054C119.798 9.39602 119.9 9.06527 119.985 8.84496C120.098 8.55327 120.234 8.34496 120.453 8.12621C120.672 7.90746 120.88 7.77202 121.172 7.65852C121.392 7.57258 121.723 7.47102 122.332 7.44302C122.909 7.41696 123.132 7.40914 124.297 7.40783V7.40939ZM128.194 8.44714C127.78 8.44714 127.444 8.78277 127.444 9.19689C127.444 9.61096 127.78 9.94689 128.194 9.94689C128.608 9.94689 128.944 9.61096 128.944 9.19689C128.944 8.78283 128.608 8.44689 128.194 8.44689V8.44714ZM124.858 9.32346C123.085 9.32346 121.648 10.7606 121.648 12.5331C121.648 14.3057 123.085 15.7421 124.858 15.7421C126.63 15.7421 128.067 14.3057 128.067 12.5331C128.067 10.7606 126.63 9.32346 124.858 9.32346H124.858ZM124.858 10.4498C126.008 10.4498 126.941 11.3825 126.941 12.5331C126.941 13.6837 126.008 14.6165 124.858 14.6165C123.707 14.6165 122.774 13.6837 122.774 12.5331C122.774 11.3825 123.707 10.4498 124.858 10.4498Z" fill="white"/>
</g>
<g clip-path="url(#clip1_15_1843)">
<path d="M165.357 4.90808H152.357C152.062 4.90508 151.778 5.01921 151.567 5.22543C151.356 5.43165 151.236 5.71312 151.232 6.00808V19.0606C151.236 19.3551 151.357 19.6359 151.568 19.8416C151.779 20.0473 152.063 20.1611 152.357 20.1581H165.357C165.652 20.1604 165.936 20.0459 166.147 19.8395C166.358 19.6332 166.478 19.3518 166.482 19.0568V6.00433C166.477 5.71024 166.356 5.43011 166.145 5.22483C165.934 5.01956 165.651 4.90573 165.357 4.90808Z" fill="#0076B2"/>
<path d="M153.49 10.6243H155.753V17.9081H153.49V10.6243ZM154.622 6.99933C154.882 6.99933 155.136 7.07634 155.351 7.22061C155.567 7.36489 155.736 7.56994 155.835 7.80985C155.934 8.04975 155.96 8.31371 155.909 8.56834C155.859 8.82298 155.733 9.05684 155.55 9.24035C155.366 9.42385 155.132 9.54876 154.877 9.59926C154.623 9.64976 154.359 9.62359 154.119 9.52406C153.879 9.42453 153.674 9.25611 153.53 9.0401C153.386 8.8241 153.309 8.57022 153.31 8.31058C153.31 7.9627 153.448 7.62918 153.695 7.38331C153.941 7.13744 154.274 6.99933 154.622 6.99933ZM157.173 10.6243H159.343V11.6243H159.373C159.676 11.0518 160.413 10.4481 161.515 10.4481C163.807 10.4431 164.232 11.9518 164.232 13.9081V17.9081H161.968V14.3643C161.968 13.5206 161.953 12.4343 160.792 12.4343C159.631 12.4343 159.433 13.3543 159.433 14.3093V17.9081H157.173V10.6243Z" fill="white"/>
</g>
<g clip-path="url(#clip2_15_1843)">
<path d="M200.857 12.5331C200.857 8.11483 197.275 4.53308 192.857 4.53308C188.439 4.53308 184.857 8.11483 184.857 12.5331C184.857 16.5261 187.783 19.8358 191.607 20.4359V14.8456H189.576V12.5331H191.607V10.7706C191.607 8.76558 192.802 7.65808 194.629 7.65808C195.504 7.65808 196.42 7.81433 196.42 7.81433V9.78308H195.411C194.417 9.78308 194.107 10.3998 194.107 11.0325V12.5331H196.326L195.971 14.8456H194.107V20.4359C197.932 19.8358 200.857 16.5261 200.857 12.5331Z" fill="#1877F2"/>
<path d="M195.971 14.8456L196.326 12.5331H194.107V11.0325C194.107 10.3997 194.417 9.78308 195.411 9.78308H196.42V7.81433C196.42 7.81433 195.504 7.65808 194.629 7.65808C192.802 7.65808 191.607 8.76558 191.607 10.7706V12.5331H189.576V14.8456H191.607V20.4359C192.021 20.5007 192.439 20.5332 192.857 20.5331C193.276 20.5332 193.694 20.5007 194.107 20.4359V14.8456H195.971Z" fill="white"/>
</g>
<g clip-path="url(#clip3_15_1843)">
<path d="M229.324 10.2942C230.355 11.0305 231.617 11.4637 232.981 11.4637V8.84138C232.723 8.84144 232.465 8.81451 232.213 8.76105V10.8252C230.85 10.8252 229.587 10.3921 228.557 9.65584V15.0073C228.557 17.6845 226.385 19.8545 223.707 19.8545C222.708 19.8545 221.779 19.5526 221.007 19.0347C221.888 19.9347 223.116 20.493 224.475 20.493C227.153 20.493 229.325 18.3229 229.325 15.6457V10.2942H229.324ZM230.272 7.64861C229.745 7.07355 229.399 6.33037 229.324 5.50875V5.17148H228.597C228.78 6.21573 229.405 7.10786 230.272 7.64861ZM222.701 16.9804C222.407 16.5948 222.248 16.123 222.249 15.638C222.249 14.4136 223.242 13.4209 224.467 13.4209C224.695 13.4207 224.922 13.4558 225.14 13.5247V10.8438C224.886 10.8089 224.629 10.7941 224.372 10.7996V12.8863C224.155 12.8173 223.928 12.7823 223.699 12.7825C222.474 12.7825 221.481 13.7751 221.481 14.9997C221.481 15.8655 221.977 16.6152 222.701 16.9804Z" fill="#FF004F"/>
<path d="M228.557 9.65578C229.587 10.392 230.85 10.8252 232.213 10.8252V8.761C231.452 8.59895 230.778 8.20149 230.272 7.64861C229.405 7.10781 228.78 6.21567 228.597 5.17148H226.685V15.6456C226.681 16.8667 225.69 17.8553 224.467 17.8553C223.747 17.8553 223.106 17.5121 222.701 16.9803C221.977 16.6152 221.481 15.8655 221.481 14.9997C221.481 13.7753 222.474 12.7825 223.699 12.7825C223.934 12.7825 224.16 12.819 224.372 12.8863V10.7996C221.741 10.854 219.625 13.0028 219.625 15.6456C219.625 16.9649 220.152 18.1609 221.007 19.0348C221.779 19.5526 222.708 19.8546 223.707 19.8546C226.385 19.8546 228.557 17.6844 228.557 15.0073L228.557 9.65578Z" fill="black"/>
<path d="M232.213 8.76094V8.20293C231.527 8.20397 230.854 8.01188 230.272 7.64861C230.787 8.21259 231.466 8.60151 232.213 8.76105M228.597 5.17143C228.579 5.07165 228.566 4.97121 228.557 4.87035V4.53308H225.917V15.0073C225.913 16.2283 224.922 17.2169 223.699 17.2169C223.352 17.2175 223.011 17.1364 222.701 16.9804C223.106 17.5121 223.746 17.8553 224.467 17.8553C225.69 17.8553 226.681 16.8667 226.685 15.6456V5.17148L228.597 5.17143ZM224.373 10.7996V10.2054C224.152 10.1753 223.93 10.1602 223.707 10.1603C221.028 10.1603 218.857 12.3304 218.857 15.0073C218.857 16.6856 219.71 18.1646 221.007 19.0347C220.152 18.1608 219.625 16.9648 219.625 15.6456C219.625 13.0028 221.741 10.8539 224.373 10.7996Z" fill="#00F2EA"/>
</g>
<path d="M260.275 11.4611L265.338 5.53308H264.138L259.743 10.6801L256.231 5.53308H252.181L257.491 13.3171L252.181 19.5331H253.381L258.023 14.0971L261.732 19.5331H265.782L260.275 11.4611ZM258.632 13.3851L258.094 12.6101L253.813 6.44308H255.656L259.11 11.4201L259.648 12.1951L264.139 18.6651H262.296L258.632 13.3851Z" fill="black"/>
<defs>
<radialGradient id="paint0_radial_15_1843" cx="0" cy="0" r="1" gradientUnits="userSpaceOnUse" gradientTransform="translate(121.107 21.7654) rotate(-90) scale(15.8572 14.7484)">
<stop stop-color="#FFDD55"/>
<stop offset="0.1" stop-color="#FFDD55"/>
<stop offset="0.5" stop-color="#FF543E"/>
<stop offset="1" stop-color="#C837AB"/>
</radialGradient>
<radialGradient id="paint1_radial_15_1843" cx="0" cy="0" r="1" gradientUnits="userSpaceOnUse" gradientTransform="translate(114.177 5.68564) rotate(78.681) scale(7.08825 29.218)">
<stop stop-color="#3771C8"/>
<stop offset="0.128" stop-color="#3771C8"/>
<stop offset="1" stop-color="#6600FF" stop-opacity="0"/>
</radialGradient>
<clipPath id="clip0_15_1843">
<rect width="16" height="16" fill="white" transform="translate(116.857 4.53308)"/>
</clipPath>
<clipPath id="clip1_15_1843">
<rect width="16" height="16" fill="white" transform="translate(150.857 4.53308)"/>
</clipPath>
<clipPath id="clip2_15_1843">
<rect width="16" height="16" fill="white" transform="translate(184.857 4.53308)"/>
</clipPath>
<clipPath id="clip3_15_1843">
<rect width="14.1241" height="16" fill="white" transform="translate(218.857 4.53308)"/>
</clipPath>
</defs>
</svg>
