<svg width="215" height="67" viewBox="0 0 215 67" fill="none" xmlns="http://www.w3.org/2000/svg">
<g id="Group" filter="url(#filter0_d_1_1812)">
<path id="Vector" d="M197.886 9H17.1138C13.7372 9 11 11.7372 11 15.1138V47.9634C11 51.3399 13.7372 54.0772 17.1138 54.0772H197.886C201.263 54.0772 204 51.3399 204 47.9634V15.1138C204 11.7372 201.263 9 197.886 9Z" fill="white"/>
<path id="Vector_2" d="M197.886 9.12744H17.1138C13.8076 9.12744 11.1274 11.8077 11.1274 15.1139V47.9635C11.1274 51.2697 13.8076 53.9499 17.1138 53.9499H197.886C201.193 53.9499 203.873 51.2697 203.873 47.9635V15.1139C203.873 11.8077 201.193 9.12744 197.886 9.12744Z" stroke="#1E1E1E" stroke-opacity="0.2" stroke-width="0.254742"/>
<path id="Vector_3" d="M43.5219 18.623H25.2367C22.6887 18.623 20.6231 20.6886 20.6231 23.2367V39.8403C20.6231 42.3884 22.6887 44.454 25.2367 44.454H43.5219C46.0699 44.454 48.1355 42.3884 48.1355 39.8403V23.2367C48.1355 20.6886 46.0699 18.623 43.5219 18.623Z" fill="#1E1E1E"/>
<path id="Vector_4" d="M34.2024 28.2886L26.8489 28.6104L28.1609 29.9545L32.9085 29.7467L34.2024 28.2886Z" fill="white"/>
<path id="Vector_5" d="M28.4165 37.2326L27.2034 38.6871L35.3565 38.33L34.0445 36.9858L28.4165 37.2326Z" fill="white"/>
<path id="Vector_6" d="M31.8107 33.7769L35.5696 29.7712L35.0028 28.2539L30.7367 32.8L31.8107 33.7769Z" fill="white"/>
<path id="Vector_7" d="M29.7684 33.8311L26.6364 37.1679L27.2038 38.6859L30.8534 34.7964L29.7684 33.8311Z" fill="white"/>
<path id="Vector_8" d="M26.849 28.6094L35.8154 36.7658L35.3567 38.3286L34.0447 36.9844L26.3903 30.1721L26.849 28.6094Z" fill="white"/>
<path id="Vector_9" d="M40.7567 24.4243L33.4025 24.746L34.7146 26.0902L39.4621 25.8824L40.7567 24.4243Z" fill="white"/>
<path id="Vector_10" d="M34.9708 33.3683L33.7571 34.8229L41.9103 34.4657L40.5989 33.1216L34.9708 33.3683Z" fill="white"/>
<path id="Vector_11" d="M38.3638 29.9139L42.1228 25.9081L41.5554 24.3901L37.2892 28.9363L38.3638 29.9139Z" fill="white"/>
<path id="Vector_12" d="M36.3216 29.9673L33.1902 33.3042L33.757 34.8222L37.4066 30.9326L36.3216 29.9673Z" fill="white"/>
<path id="Vector_13" d="M33.4021 24.7471L42.3685 32.9036L41.9098 34.4664L40.5984 33.1222L32.9434 26.3098L33.4021 24.7471Z" fill="white"/>
<path id="Vector_14" d="M60.6009 40.3372L57.221 35.322V40.3372H52.9471V24.2012H57.221V32.9016L60.6009 28.1044H65.7252L60.9061 34.2535L65.8124 40.3372H60.6009Z" fill="#1E1E1E"/>
<path id="Vector_15" d="M68.0416 26.9702C67.2856 26.9702 66.675 26.7667 66.2099 26.3596C65.7592 25.938 65.5339 25.4147 65.5339 24.7896C65.5339 24.15 65.7592 23.6194 66.2099 23.1978C66.675 22.7763 67.2856 22.5654 68.0416 22.5654C68.7828 22.5654 69.3792 22.7763 69.8295 23.1978C70.2946 23.6194 70.5271 24.15 70.5271 24.7896C70.5271 25.4147 70.2946 25.938 69.8295 26.3596C69.3792 26.7667 68.7828 26.9702 68.0416 26.9702ZM70.1566 28.1041V40.3369H65.8828V28.1041H70.1566Z" fill="#1E1E1E"/>
<path id="Vector_16" d="M70.7101 34.2099C70.7101 32.9452 70.9353 31.8404 71.3863 30.8955C71.8513 29.9506 72.4839 29.2237 73.2834 28.715C74.0829 28.2061 74.9695 27.9517 75.9439 27.9517C76.7286 27.9517 77.4262 28.1189 78.0367 28.4533C78.662 28.7731 79.1491 29.2165 79.4976 29.7834V24.2012H83.7939V40.3372H79.4976V38.6364C79.1632 39.2034 78.6908 39.654 78.0803 39.9884C77.4698 40.3227 76.75 40.4899 75.9218 40.4899C74.948 40.4899 74.0608 40.2355 73.2613 39.7267C72.4766 39.2179 71.8513 38.4911 71.3863 37.5461C70.9353 36.5867 70.7101 35.4746 70.7101 34.2099ZM79.5197 34.2099C79.5197 33.4249 79.3019 32.8071 78.8657 32.3564C78.4442 31.9058 77.9208 31.6805 77.2955 31.6805C76.6556 31.6805 76.1255 31.9058 75.704 32.3564C75.2824 32.7926 75.0713 33.4104 75.0713 34.2099C75.0713 34.9949 75.2824 35.62 75.704 36.0852C76.1255 36.5358 76.6556 36.7612 77.2955 36.7612C77.9208 36.7612 78.4442 36.5358 78.8657 36.0852C79.3019 35.6345 79.5197 35.0094 79.5197 34.2099Z" fill="#1E1E1E"/>
<path id="Vector_17" d="M90.258 40.4898C89.1529 40.4898 88.1645 40.3081 87.2926 39.9447C86.4348 39.5667 85.7513 39.0579 85.2427 38.4183C84.7481 37.7641 84.472 37.03 84.4137 36.2159H88.5572C88.6155 36.6084 88.7971 36.9137 89.102 37.1318C89.4076 37.3498 89.7855 37.4589 90.2359 37.4589C90.585 37.4589 90.8611 37.3861 91.0648 37.2408C91.2679 37.0954 91.3697 36.9065 91.3697 36.6739C91.3697 36.3686 91.2029 36.1432 90.8685 35.9979C90.5341 35.8525 89.9819 35.6926 89.2112 35.5181C88.3387 35.3437 87.6123 35.1475 87.0306 34.9294C86.4489 34.7114 85.9403 34.3552 85.504 33.8609C85.0825 33.3667 84.8721 32.698 84.8721 31.8548C84.8721 31.128 85.0684 30.4739 85.4605 29.8924C85.8532 29.2964 86.4275 28.8239 87.1834 28.475C87.954 28.1261 88.8768 27.9517 89.9524 27.9517C91.5513 27.9517 92.8092 28.3442 93.7253 29.1292C94.6407 29.9142 95.1714 30.9463 95.3169 32.2255H91.4569C91.3845 31.833 91.2102 31.535 90.9341 31.3315C90.6721 31.1134 90.3163 31.0044 89.8653 31.0044C89.5168 31.0044 89.2474 31.0698 89.0584 31.2007C88.8842 31.3315 88.7971 31.5132 88.7971 31.7458C88.7971 32.0366 88.9639 32.2619 89.2983 32.4218C89.6327 32.5672 90.1709 32.7198 90.912 32.8797C91.7986 33.0687 92.5331 33.2795 93.1141 33.5121C93.7105 33.7447 94.2265 34.1226 94.6628 34.6459C95.1131 35.1547 95.3383 35.8525 95.3383 36.7393C95.3383 37.4515 95.1279 38.0912 94.7064 38.6581C94.2989 39.2251 93.7105 39.6757 92.9399 40.0101C92.184 40.3299 91.29 40.4898 90.258 40.4898Z" fill="#1E1E1E"/>
<path id="Vector_18" d="M95.5595 34.2098C95.5595 32.9451 95.8209 31.8403 96.3442 30.8954C96.8676 29.9505 97.5947 29.2236 98.5249 28.7149C99.4698 28.206 100.546 27.9517 101.752 27.9517C103.308 27.9517 104.616 28.3805 105.677 29.2382C106.739 30.0814 107.422 31.2661 107.727 32.7925H103.192C102.93 31.9929 102.421 31.5932 101.665 31.5932C101.127 31.5932 100.698 31.8185 100.378 32.2692C100.073 32.7053 99.9208 33.3522 99.9208 34.2098C99.9208 35.0675 100.073 35.7217 100.378 36.1723C100.698 36.623 101.127 36.8483 101.665 36.8483C102.436 36.8483 102.944 36.4486 103.192 35.649H107.727C107.422 37.1608 106.739 38.3456 105.677 39.2033C104.616 40.0609 103.308 40.4898 101.752 40.4898C100.546 40.4898 99.4698 40.2354 98.5249 39.7266C97.5947 39.2178 96.8676 38.491 96.3442 37.546C95.8209 36.6011 95.5595 35.4891 95.5595 34.2098Z" fill="#1E1E1E"/>
<path id="Vector_19" d="M112.594 24.2012V40.3372H108.32V24.2012H112.594Z" fill="#1E1E1E"/>
<path id="Vector_20" d="M126.362 28.1045V40.3373H122.065V38.5929C121.702 39.1453 121.201 39.596 120.561 39.9448C119.922 40.2792 119.187 40.4464 118.359 40.4464C116.934 40.4464 115.808 39.9812 114.979 39.0508C114.165 38.1059 113.758 36.8267 113.758 35.2131V28.1045H118.01V34.6679C118.01 35.3657 118.191 35.9181 118.555 36.3252C118.933 36.7177 119.427 36.9139 120.038 36.9139C120.663 36.9139 121.157 36.7177 121.521 36.3252C121.884 35.9181 122.065 35.3657 122.065 34.6679V28.1045H126.362Z" fill="#1E1E1E"/>
<path id="Vector_21" d="M131.885 29.8052C132.219 29.2237 132.692 28.7731 133.302 28.4533C133.913 28.1189 134.633 27.9517 135.461 27.9517C136.435 27.9517 137.314 28.2061 138.1 28.715C138.899 29.2237 139.525 29.9506 139.975 30.8955C140.44 31.8404 140.673 32.9452 140.673 34.2099C140.673 35.4746 140.44 36.5867 139.975 37.5461C139.525 38.4911 138.899 39.2179 138.1 39.7267C137.314 40.2355 136.435 40.4899 135.461 40.4899C134.633 40.4899 133.913 40.33 133.302 40.0101C132.692 39.6758 132.219 39.2179 131.885 38.6364V40.3372H127.612V24.2012H131.885V29.8052ZM136.333 34.2099C136.333 33.4104 136.116 32.7926 135.679 32.3564C135.258 31.9058 134.734 31.6805 134.109 31.6805C133.484 31.6805 132.954 31.9058 132.518 32.3564C132.096 32.8071 131.885 33.4249 131.885 34.2099C131.885 35.0094 132.096 35.6345 132.518 36.0852C132.954 36.5358 133.484 36.7612 134.109 36.7612C134.734 36.7612 135.258 36.5358 135.679 36.0852C136.116 35.62 136.333 34.9949 136.333 34.2099Z" fill="#1E1E1E"/>
<path id="Vector_22" d="M145.305 36.7831H150.517V40.3373H140.595V36.9575L145.458 31.6588H140.639V28.1045H150.343V31.4843L145.305 36.7831Z" fill="#1E1E1E"/>
<path id="Vector_23" d="M156.81 40.4898C155.589 40.4898 154.491 40.2354 153.518 39.7266C152.558 39.2178 151.802 38.491 151.25 37.546C150.697 36.6011 150.421 35.4891 150.421 34.2098C150.421 32.9451 150.697 31.8403 151.25 30.8954C151.817 29.9505 152.58 29.2236 153.539 28.7149C154.514 28.206 155.611 27.9517 156.832 27.9517C158.053 27.9517 159.144 28.206 160.103 28.7149C161.077 29.2236 161.84 29.9505 162.392 30.8954C162.959 31.8403 163.243 32.9451 163.243 34.2098C163.243 35.4746 162.959 36.5866 162.392 37.546C161.84 38.491 161.077 39.2178 160.103 39.7266C159.129 40.2354 158.031 40.4898 156.81 40.4898ZM156.81 36.7829C157.406 36.7829 157.9 36.5648 158.293 36.1287C158.7 35.6781 158.904 35.0384 158.904 34.2098C158.904 33.3812 158.7 32.7488 158.293 32.3128C157.9 31.8767 157.413 31.6586 156.832 31.6586C156.251 31.6586 155.763 31.8767 155.371 32.3128C154.979 32.7488 154.782 33.3812 154.782 34.2098C154.782 35.053 154.971 35.6926 155.349 36.1287C155.727 36.5648 156.214 36.7829 156.81 36.7829Z" fill="#1E1E1E"/>
<path id="Vector_24" d="M171.802 27.9951C173.212 27.9951 174.331 28.4676 175.16 29.4125C175.988 30.3428 176.402 31.6076 176.402 33.2066V40.337H172.129V33.7735C172.129 33.0758 171.947 32.5306 171.583 32.1381C171.22 31.7311 170.733 31.5276 170.122 31.5276C169.483 31.5276 168.981 31.7311 168.618 32.1381C168.255 32.5306 168.073 33.0758 168.073 33.7735V40.337H163.799V28.1041H168.073V29.8486C168.451 29.2962 168.96 28.8528 169.599 28.5184C170.239 28.1696 170.973 27.9951 171.802 27.9951Z" fill="#1E1E1E"/>
<path id="Vector_25" d="M189.253 34.079C189.253 34.4133 189.231 34.7477 189.187 35.0821H181.098C181.142 35.7507 181.323 36.2523 181.643 36.5866C181.977 36.9065 182.399 37.0664 182.907 37.0664C183.62 37.0664 184.128 36.7466 184.434 36.1069H188.992C188.803 36.9501 188.431 37.706 187.879 38.3747C187.342 39.0289 186.658 39.5449 185.829 39.9229C185.001 40.3008 184.085 40.4898 183.082 40.4898C181.875 40.4898 180.8 40.2354 179.855 39.7266C178.925 39.2178 178.19 38.491 177.652 37.546C177.129 36.6011 176.867 35.4891 176.867 34.2098C176.867 32.9306 177.129 31.8258 177.652 30.8954C178.176 29.9505 178.903 29.2236 179.833 28.7149C180.778 28.206 181.861 27.9517 183.082 27.9517C184.289 27.9517 185.357 28.1988 186.288 28.693C187.218 29.1873 187.945 29.8996 188.468 30.83C188.992 31.7458 189.253 32.8288 189.253 34.079ZM184.892 33.0105C184.892 32.4872 184.717 32.0802 184.368 31.7894C184.02 31.4842 183.584 31.3315 183.06 31.3315C182.537 31.3315 182.108 31.4769 181.773 31.7676C181.439 32.0438 181.221 32.4581 181.119 33.0105H184.892Z" fill="#1E1E1E"/>
<path id="Vector_26" d="M191.891 40.5114C191.135 40.5114 190.525 40.3079 190.059 39.9009C189.609 39.4793 189.384 38.9487 189.384 38.3091C189.384 37.6694 189.609 37.1389 190.059 36.7173C190.525 36.2957 191.135 36.085 191.891 36.085C192.632 36.085 193.228 36.2957 193.679 36.7173C194.144 37.1389 194.377 37.6694 194.377 38.3091C194.377 38.9342 194.144 39.4575 193.679 39.8791C193.228 40.3007 192.632 40.5114 191.891 40.5114Z" fill="#1E1E1E"/>
</g>
<defs>
<filter id="filter0_d_1_1812" x="0.810323" y="0.848255" width="213.379" height="65.4565" filterUnits="userSpaceOnUse" color-interpolation-filters="sRGB">
<feFlood flood-opacity="0" result="BackgroundImageFix"/>
<feColorMatrix in="SourceAlpha" type="matrix" values="0 0 0 0 0 0 0 0 0 0 0 0 0 0 0 0 0 0 127 0" result="hardAlpha"/>
<feOffset dy="2.03793"/>
<feGaussianBlur stdDeviation="5.09484"/>
<feComposite in2="hardAlpha" operator="out"/>
<feColorMatrix type="matrix" values="0 0 0 0 0 0 0 0 0 0 0 0 0 0 0 0 0 0 0.05 0"/>
<feBlend mode="normal" in2="BackgroundImageFix" result="effect1_dropShadow_1_1812"/>
<feBlend mode="normal" in="SourceGraphic" in2="effect1_dropShadow_1_1812" result="shape"/>
</filter>
</defs>
</svg>
